<svg id="Layer_1" data-name="Layer 1" xmlns="http://www.w3.org/2000/svg" viewBox="0 0 200 200"><defs><style>.cls-1,.cls-2{fill:#404c84;}.cls-1{fill-rule:evenodd;}</style></defs><title>gdp</title><path class="cls-1" d="M177.52,51.81a12.84,12.84,0,0,1-3.73,0,86.26,86.26,0,0,0-18.9-20,78.63,78.63,0,0,0-9.58,5.59c3.53,4.71,7.56,8.94,10.38,14.38-.78.42-2.17.22-3.33.26-3.45-4.45-6.57-9.23-10.52-13.18a136.46,136.46,0,0,1-16,5.86c.51,2.29,2.14,4.6,2.79,7.19a17.55,17.55,0,0,1-3.33.13A50.5,50.5,0,0,0,122,45.82a145.78,145.78,0,0,1-21.43,2.66c-.3,1,0,2.6-.27,3.59H97c-.09-1.24.26-2.93-.4-3.59a141.88,141.88,0,0,1-19-2.26,11.53,11.53,0,0,0-2.53-.4c-.87.25-1.4,2.35-1.73,3.06-.6,1.3-1.12,2.15-1.6,3.19a12.5,12.5,0,0,1-3.46,0c1-2.3,2-4.55,2.93-6.92a11.07,11.07,0,0,0-3.86-1.6c-3.9-1.26-8-2.74-11.84-4.26-4,3.69-7,8.34-10.25,12.78a11.71,11.71,0,0,1-3.33.13c.26-1.44,1.29-2.6,2.13-3.86,1.64-2.47,3.37-4.7,5.33-7.19.42-.53,2.72-3.15,2.66-3.46a16.5,16.5,0,0,0-2.4-1.46c-2.46-1.43-4.93-2.59-7.05-4.13-7.89,5.19-13.67,12.5-19.3,20a30.21,30.21,0,0,1-3.59,0C35.88,28.19,58.86,10.88,97,9.08a52.32,52.32,0,0,1,7.72.13c6.33.66,13.34,1.47,19.43,3.2C148,19.16,165.5,33.54,177.52,51.81Zm-99-36.87c4.52,3.7,11.89,6.38,20.1,6.26a37.46,37.46,0,0,0,16.11-3.73,11.26,11.26,0,0,0,3.86-2.79C107,11.73,89.68,11.56,78.49,14.94Zm-5.06,1.2c-.43,0-1.87.45-2.26.13-.52,0-.41.65-.93.67-9.29,3.22-17.79,7.23-24.62,12.91a42.79,42.79,0,0,0,9.05,4.92A149.81,149.81,0,0,1,76.1,17.87C75.19,17.31,74.56,16.48,73.43,16.14Zm65.22,5.46A78.93,78.93,0,0,0,123.35,16a5.14,5.14,0,0,0-2.26,2c6.65,3.52,13.39,9.25,19,14.37.6.54,2.13,2.1,2.66,2.13s1.56-.88,2.13-1.2a70.49,70.49,0,0,0,6.53-3.73A63,63,0,0,0,138.65,21.59Zm-21.3-1.47c-1.59.49-3.7,1.62-5.46,2.4,3.87,5.93,8.54,12.22,12.11,18.9a57.59,57.59,0,0,0,14.78-5.32A75.79,75.79,0,0,0,117.36,20.13ZM63,31.84c-1.65,1.43-3.49,2.76-4.66,4.66A58.6,58.6,0,0,0,72.9,41.43c2-3.19,4-6.42,6-9.59s4.23-6.26,6.25-9.45c-1.77-.76-3.61-1.45-5.46-2.13A90.12,90.12,0,0,0,63,31.84ZM76.63,42.36a67.69,67.69,0,0,0,20.23,2.26c-.06-6.64.13-13.54-.13-20-2.55-.33-5.11-.66-7.59-1.06A100,100,0,0,0,76.63,42.36Zm24-17.57c-.22,6.35-.23,13.61,0,20a73.25,73.25,0,0,0,19.7-2.53,98.29,98.29,0,0,0-12.51-18.5C105.42,24.12,103,24.41,100.59,24.79Z"/><path class="cls-1" d="M19.66,148.41a12.84,12.84,0,0,1,3.73,0,86.3,86.3,0,0,0,18.9,20,78.47,78.47,0,0,0,9.58-5.59c-3.53-4.71-7.56-8.93-10.38-14.37.78-.42,2.17-.22,3.33-.27,3.45,4.45,6.57,9.23,10.52,13.18a136.45,136.45,0,0,1,16-5.86c-.51-2.29-2.14-4.6-2.79-7.19a17.51,17.51,0,0,1,3.33-.13,50.42,50.42,0,0,0,3.33,6.26,145.57,145.57,0,0,1,21.43-2.66c.3-1,0-2.6.27-3.59h3.33c.09,1.25-.26,2.93.4,3.59a141.73,141.73,0,0,1,19,2.26,11.56,11.56,0,0,0,2.53.4c.87-.25,1.4-2.35,1.73-3.06.6-1.3,1.12-2.15,1.6-3.19a12.53,12.53,0,0,1,3.46,0c-1,2.3-2,4.55-2.93,6.92a11.05,11.05,0,0,0,3.86,1.6c3.91,1.26,8,2.74,11.85,4.26,4-3.69,7-8.34,10.25-12.78a11.72,11.72,0,0,1,3.33-.13c-.26,1.44-1.3,2.6-2.13,3.86-1.64,2.47-3.37,4.7-5.33,7.19-.42.53-2.72,3.15-2.66,3.46a16.41,16.41,0,0,0,2.4,1.46c2.46,1.43,4.93,2.59,7.05,4.13,7.9-5.19,13.67-12.5,19.3-20a30.36,30.36,0,0,1,3.59,0c-16.22,23.88-39.2,41.19-77.33,43a52.29,52.29,0,0,1-7.72-.13c-6.33-.66-13.34-1.47-19.43-3.2C49.19,181.06,31.68,166.68,19.66,148.41Zm99,36.87c-4.52-3.7-11.89-6.38-20.1-6.26a37.44,37.44,0,0,0-16.11,3.73,11.28,11.28,0,0,0-3.86,2.79C90.15,188.48,107.49,188.66,118.69,185.28Zm5.06-1.2c.43,0,1.87-.45,2.26-.13.52,0,.41-.65.93-.67,9.29-3.22,17.79-7.23,24.62-12.91a42.81,42.81,0,0,0-9.05-4.92,149.85,149.85,0,0,1-21.43,16.9A11.14,11.14,0,0,0,123.74,184.08Zm-65.22-5.46a78.86,78.86,0,0,0,15.31,5.59,5.14,5.14,0,0,0,2.26-2c-6.65-3.52-13.39-9.25-19-14.37-.6-.54-2.13-2.1-2.66-2.13s-1.56.88-2.13,1.2a70.21,70.21,0,0,0-6.53,3.73A63,63,0,0,0,58.52,178.62Zm21.3,1.47c1.59-.5,3.7-1.62,5.46-2.4-3.87-5.93-8.54-12.22-12.11-18.9a57.61,57.61,0,0,0-14.78,5.32A75.8,75.8,0,0,0,79.82,180.09Zm54.3-11.71c1.65-1.43,3.49-2.77,4.66-4.66a58.54,58.54,0,0,0-14.51-4.92c-2,3.19-4,6.42-6,9.59s-4.23,6.26-6.25,9.45c1.77.76,3.61,1.45,5.46,2.13A90.12,90.12,0,0,0,134.13,168.38Zm-13.58-10.52a67.66,67.66,0,0,0-20.23-2.26c.06,6.64-.13,13.54.13,20,2.55.33,5.11.66,7.59,1.06A100,100,0,0,0,120.55,157.86Zm-24,17.57c.22-6.35.23-13.61,0-20A73.29,73.29,0,0,0,76.89,158a98.27,98.27,0,0,0,12.51,18.5C91.75,176.09,94.21,175.8,96.59,175.43Z"/><path class="cls-2" d="M10,66.88Q19.64,56.74,34.6,56.74A33.63,33.63,0,0,1,46.53,59q5.94,2.24,7.41,2.24a3.15,3.15,0,0,0,2.5-1.09A8.49,8.49,0,0,0,58,56.84h2.69v22.6H58.23a52.77,52.77,0,0,0-7.12-11.61Q44.32,60,35.73,60q-9.34,0-13.63,8.11T17.8,90.94a55,55,0,0,0,4,21.54q4,9.46,15.4,9.46,6.18,0,8.3-2.6a6.78,6.78,0,0,0,1.23-4.43V104.72q0-4.39-2.69-5.76Q42.29,98.11,37,98V95.57H70.08V98q-5,.19-6.63,2t-1.63,6.82v12.31a42.64,42.64,0,0,1-10.38,4,60.2,60.2,0,0,1-16,2Q19.31,125.1,9.69,115q-9-9.48-9-23.78T10,66.88Z"/><path class="cls-2" d="M73.66,120.81a14.67,14.67,0,0,0,5.24-1q2.83-1.46,2.83-5.33V66.79q0-3.73-2.69-5.19a14.87,14.87,0,0,0-5.38-1.18V58h29.53q17.88,0,27.27,9.53Q139,76.18,139,90.8A31.19,31.19,0,0,1,130.41,113q-9.67,10.24-26.23,10.24H73.66Zm24.79-2.12q1,1.32,4.13,1.32a18.23,18.23,0,0,0,14.11-6.06q5.52-6.06,5.52-23.28a46.92,46.92,0,0,0-3-17.6Q114.42,61.22,103,61.22q-3.78,0-4.91,1.6-.76,1-.76,4v47.55A8.07,8.07,0,0,0,98.45,118.68Z"/><path class="cls-2" d="M143.67,120.81q4.76-.33,6.39-2t1.63-6.82V69.24q0-5.44-1.65-6.87t-6.37-1.95V58h31.09q12.36,0,18.8,4T200,75.75a17,17,0,0,1-2.52,8.94q-2.53,4.18-8.33,6.72a29.89,29.89,0,0,1-8.78,2.17q-4.39.38-13,.38v18q0,5.33,1.79,7t6.7,1.84v2.45H143.67Zm35.19-32.17q4.58-2.92,4.58-12.6,0-6.6-2.22-10.66t-8.49-4.06a9.14,9.14,0,0,0-4.13.68,2.76,2.76,0,0,0-1.25,2.67V90.61Q176,90.47,178.87,88.63Z"/><path class="cls-2" d="M21.37,130.2v.42a2.3,2.3,0,0,0-1.29.3q-.33.27-.33,1.22v5.58a5.08,5.08,0,0,0,.3,2A2.06,2.06,0,0,0,22.14,141a2.59,2.59,0,0,0,2.59-1.42,5.18,5.18,0,0,0,.37-2.19v-5.09a1.77,1.77,0,0,0-.33-1.23,2,2,0,0,0-1.29-.41v-.42h3.66v.42a2.44,2.44,0,0,0-1.05.38,1.42,1.42,0,0,0-.26,1v5.32a4.77,4.77,0,0,1-1,3.28,4.09,4.09,0,0,1-3.22,1.15q-2.87,0-3.93-1.72a4.43,4.43,0,0,1-.56-2.35v-5.57a1.81,1.81,0,0,0-.25-1.18,2.05,2.05,0,0,0-1.12-.34v-.42Z"/><path class="cls-2" d="M28.09,137.56h.48a5.18,5.18,0,0,0,1.28,2.71,2.86,2.86,0,0,0,2,.85,1.81,1.81,0,0,0,2.05-1.81,1.62,1.62,0,0,0-.49-1.22,6,6,0,0,0-1.31-.81l-1.06-.54a7,7,0,0,1-2.23-1.58,2.91,2.91,0,0,1-.65-1.93,3.54,3.54,0,0,1,.86-2.28,3.19,3.19,0,0,1,2.63-1.06,5.55,5.55,0,0,1,1.75.28,6.48,6.48,0,0,0,1,.28.41.41,0,0,0,.38-.16,1.36,1.36,0,0,0,.17-.42h.5v3.63H35a5.08,5.08,0,0,0-1.15-2.17,2.59,2.59,0,0,0-2-.91,1.81,1.81,0,0,0-1.31.46,1.65,1.65,0,0,0,0,2.3,10.53,10.53,0,0,0,2,1.17l1.23.62a4.85,4.85,0,0,1,1.31.92,3.17,3.17,0,0,1,.91,2.29,3.56,3.56,0,0,1-1,2.38,4,4,0,0,1-3.14,1.12,5.52,5.52,0,0,1-1-.09,5.38,5.38,0,0,1-1-.29l-.32-.12-.22-.05-.18,0a.38.38,0,0,0-.35.15,1.52,1.52,0,0,0-.17.43h-.48Z"/><path class="cls-2" d="M39,131.73A5.58,5.58,0,0,1,43.21,130a5.8,5.8,0,0,1,2.06.39,5.52,5.52,0,0,0,1.28.39.54.54,0,0,0,.43-.19,1.48,1.48,0,0,0,.27-.57h.46v3.89h-.42a9.1,9.1,0,0,0-1.23-2,3.45,3.45,0,0,0-2.65-1.35,2.48,2.48,0,0,0-2.35,1.4,8.54,8.54,0,0,0-.74,3.93,9.48,9.48,0,0,0,.69,3.71,2.61,2.61,0,0,0,2.65,1.63,1.8,1.8,0,0,0,1.43-.45,1.17,1.17,0,0,0,.21-.76v-1.76a1,1,0,0,0-.46-1,3.42,3.42,0,0,0-1.22-.16v-.42h5.71v.42a1.63,1.63,0,0,0-1.14.35,1.81,1.81,0,0,0-.28,1.17v2.12a7.29,7.29,0,0,1-1.79.68,10.35,10.35,0,0,1-2.76.34A5.82,5.82,0,0,1,38.91,140a5.73,5.73,0,0,1-1.54-4.1A5.87,5.87,0,0,1,39,131.73Z"/><path class="cls-2" d="M50.29,137.56h.48a5.17,5.17,0,0,0,1.28,2.71,2.86,2.86,0,0,0,2,.85,1.81,1.81,0,0,0,2.05-1.81,1.62,1.62,0,0,0-.49-1.22,6,6,0,0,0-1.31-.81l-1.06-.54A7,7,0,0,1,51,135.17a2.91,2.91,0,0,1-.65-1.93,3.54,3.54,0,0,1,.86-2.28,3.19,3.19,0,0,1,2.63-1.06,5.55,5.55,0,0,1,1.75.28,6.48,6.48,0,0,0,1,.28.42.42,0,0,0,.38-.16,1.36,1.36,0,0,0,.17-.42h.5v3.63h-.46A5.07,5.07,0,0,0,56,131.34a2.59,2.59,0,0,0-2-.91,1.81,1.81,0,0,0-1.31.46,1.65,1.65,0,0,0,0,2.3,10.55,10.55,0,0,0,2,1.17l1.23.62a4.86,4.86,0,0,1,1.31.92,3.17,3.17,0,0,1,.91,2.29,3.56,3.56,0,0,1-1,2.38A4,4,0,0,1,54,141.68a5.52,5.52,0,0,1-1-.09,5.38,5.38,0,0,1-1-.29l-.32-.12-.22-.05-.18,0a.38.38,0,0,0-.35.15,1.51,1.51,0,0,0-.17.43h-.48Z"/><path class="cls-2" d="M65.34,131.73A5.58,5.58,0,0,1,69.58,130a5.8,5.8,0,0,1,2.06.39,5.52,5.52,0,0,0,1.28.39.54.54,0,0,0,.43-.19,1.48,1.48,0,0,0,.27-.57h.46v3.89h-.42a9.09,9.09,0,0,0-1.23-2,3.45,3.45,0,0,0-2.65-1.35,2.47,2.47,0,0,0-2.35,1.4,8.54,8.54,0,0,0-.74,3.93,9.47,9.47,0,0,0,.69,3.71A2.61,2.61,0,0,0,70,141.22a1.8,1.8,0,0,0,1.43-.45,1.17,1.17,0,0,0,.21-.76v-1.76a1,1,0,0,0-.46-1A3.42,3.42,0,0,0,70,137.1v-.42h5.71v.42a1.63,1.63,0,0,0-1.14.35,1.81,1.81,0,0,0-.28,1.17v2.12a7.29,7.29,0,0,1-1.79.68,10.35,10.35,0,0,1-2.76.34A5.82,5.82,0,0,1,65.28,140a5.73,5.73,0,0,1-1.54-4.1A5.87,5.87,0,0,1,65.34,131.73Z"/><path class="cls-2" d="M77.47,134.65a3.29,3.29,0,0,1,2.46-1.06,3,3,0,0,1,1.55.43,2.9,2.9,0,0,1,1.11,1.19,4.57,4.57,0,0,1,.41,1.5,5.46,5.46,0,0,1,.06.66H78.8a6,6,0,0,0,.33,1.73,1.76,1.76,0,0,0,1.72,1.37A1.9,1.9,0,0,0,82,140.1a5,5,0,0,0,.79-.74l.38.24a4.45,4.45,0,0,1-1.79,1.76,3.44,3.44,0,0,1-1.51.32,3.39,3.39,0,0,1-2.3-1,4,4,0,0,1-1.07-3.09A4.12,4.12,0,0,1,77.47,134.65Zm3.54,2.1a7.06,7.06,0,0,0-.23-2.06.83.83,0,0,0-.85-.59.89.89,0,0,0-.89.68,6.65,6.65,0,0,0-.27,2Z"/><path class="cls-2" d="M84.9,134.73a3.49,3.49,0,0,1,2.69-1.16,3.45,3.45,0,0,1,2.7,1.19,4.46,4.46,0,0,1,0,5.74,3.42,3.42,0,0,1-2.72,1.2,3.49,3.49,0,0,1-2.69-1.17,4.48,4.48,0,0,1,0-5.8Zm1.56,5.35q.28,1.08,1.13,1.08a1,1,0,0,0,1.06-.83,10.24,10.24,0,0,0,.25-2.7,9.8,9.8,0,0,0-.26-2.69,1,1,0,0,0-1-.83q-.85,0-1.13,1.08a11,11,0,0,0-.19,2.45A11.33,11.33,0,0,0,86.46,140.08Z"/><path class="cls-2" d="M96.18,141a2.52,2.52,0,0,0,.9-.18.94.94,0,0,0,.49-.92v-8.21a.93.93,0,0,0-.46-.89,2.56,2.56,0,0,0-.93-.2v-.42h5.09a6.31,6.31,0,0,1,4.7,1.64,5.48,5.48,0,0,1,1.47,4,5.37,5.37,0,0,1-1.48,3.83,5.92,5.92,0,0,1-4.52,1.76H96.18Zm4.27-.37a.85.85,0,0,0,.71.23,3.14,3.14,0,0,0,2.43-1q1-1,1-4a8.08,8.08,0,0,0-.51-3,2.87,2.87,0,0,0-2.8-2q-.65,0-.85.28a1.28,1.28,0,0,0-.13.69v8.19A1.39,1.39,0,0,0,100.45,140.66Z"/><path class="cls-2" d="M109.48,138.11a14.75,14.75,0,0,1,3.39-1.33v-1.21a1.61,1.61,0,0,0-.31-1.09,1.43,1.43,0,0,0-1.11-.35,1.45,1.45,0,0,0-.74.17.48.48,0,0,0-.29.42.35.35,0,0,0,0,.16.6.6,0,0,0,.1.14l.1.11a1.23,1.23,0,0,1,.18.31.92.92,0,0,1,.07.35.89.89,0,0,1-.31.73,1.12,1.12,0,0,1-.73.26,1.23,1.23,0,0,1-.82-.28,1,1,0,0,1-.34-.82,1.71,1.71,0,0,1,.9-1.52,4.13,4.13,0,0,1,2.22-.56,4.71,4.71,0,0,1,2.37.54,2.16,2.16,0,0,1,.94,2v4a.49.49,0,0,0,.09.3.26.26,0,0,0,.21.13.4.4,0,0,0,.17,0,1.09,1.09,0,0,0,.24-.2l.25.35a2.71,2.71,0,0,1-1.08.8,2.15,2.15,0,0,1-.79.15,1.29,1.29,0,0,1-1.08-.43,1.63,1.63,0,0,1-.28-.72,3.9,3.9,0,0,1-1.56,1,3.22,3.22,0,0,1-1,.18,2.12,2.12,0,0,1-1.28-.43,1.57,1.57,0,0,1-.59-1.36A2,2,0,0,1,109.48,138.11Zm2.9,2.14a3.22,3.22,0,0,0,.46-.46v-2.44a3.46,3.46,0,0,0-1.17.51,1.78,1.78,0,0,0-.85,1.52,1.22,1.22,0,0,0,.25.83.73.73,0,0,0,.56.28A1.29,1.29,0,0,0,112.38,140.25Z"/><path class="cls-2" d="M116.57,134.51V134l.54-.48q.43-.4.81-.82A13.81,13.81,0,0,0,119.3,131h.42v2.81h1.59v.73h-1.59v5a1.41,1.41,0,0,0,.11.59.55.55,0,0,0,.54.37.72.72,0,0,0,.55-.23,3,3,0,0,0,.44-.64l.4.2a3.75,3.75,0,0,1-.7,1.11,2.31,2.31,0,0,1-1.75.76,2.25,2.25,0,0,1-1-.22,1.57,1.57,0,0,1-.85-1.54v-5.4Z"/><path class="cls-2" d="M123.35,138.11a14.75,14.75,0,0,1,3.39-1.33v-1.21a1.61,1.61,0,0,0-.31-1.09,1.43,1.43,0,0,0-1.11-.35,1.45,1.45,0,0,0-.74.17.48.48,0,0,0-.29.42.36.36,0,0,0,0,.16.65.65,0,0,0,.1.14l.1.11a1.22,1.22,0,0,1,.18.31.91.91,0,0,1,.07.35.88.88,0,0,1-.31.73,1.12,1.12,0,0,1-.73.26,1.23,1.23,0,0,1-.82-.28,1,1,0,0,1-.34-.82,1.71,1.71,0,0,1,.9-1.52,4.13,4.13,0,0,1,2.22-.56,4.71,4.71,0,0,1,2.37.54,2.16,2.16,0,0,1,.94,2v4a.49.49,0,0,0,.09.3.26.26,0,0,0,.21.13.41.41,0,0,0,.17,0,1.11,1.11,0,0,0,.24-.2l.25.35a2.7,2.7,0,0,1-1.08.8,2.15,2.15,0,0,1-.79.15,1.29,1.29,0,0,1-1.08-.43,1.65,1.65,0,0,1-.28-.72,3.9,3.9,0,0,1-1.56,1,3.22,3.22,0,0,1-1,.18,2.12,2.12,0,0,1-1.28-.43,1.57,1.57,0,0,1-.59-1.36A2,2,0,0,1,123.35,138.11Zm2.9,2.14a3.2,3.2,0,0,0,.46-.46v-2.44a3.46,3.46,0,0,0-1.17.51,1.79,1.79,0,0,0-.85,1.52,1.22,1.22,0,0,0,.25.83.73.73,0,0,0,.56.28A1.3,1.3,0,0,0,126.25,140.25Z"/><path class="cls-2" d="M134.6,141a1.72,1.72,0,0,0,1.1-.35,1.74,1.74,0,0,0,.28-1.17v-7.36q0-.94-.28-1.18a2.11,2.11,0,0,0-1.1-.34v-.42H140a6.19,6.19,0,0,1,3.24.69,2.57,2.57,0,0,1,1.11,2.37,2.93,2.93,0,0,1-.43,1.54,3,3,0,0,1-1.43,1.16,5.14,5.14,0,0,1-1.51.37q-.76.07-2.24.07v3.11a1.67,1.67,0,0,0,.31,1.2,1.84,1.84,0,0,0,1.15.32v.42H134.6Zm6.06-5.54q.79-.5.79-2.17a3.82,3.82,0,0,0-.38-1.84,1.52,1.52,0,0,0-1.46-.7,1.57,1.57,0,0,0-.71.12.48.48,0,0,0-.22.46v4.47A4.27,4.27,0,0,0,140.66,135.48Z"/><path class="cls-2" d="M145.93,134.73a3.49,3.49,0,0,1,2.69-1.16,3.45,3.45,0,0,1,2.7,1.19,4.46,4.46,0,0,1,0,5.74,3.42,3.42,0,0,1-2.72,1.2,3.49,3.49,0,0,1-2.69-1.17,4.48,4.48,0,0,1,0-5.8Zm1.56,5.35q.28,1.08,1.13,1.08a1,1,0,0,0,1.06-.83,10.23,10.23,0,0,0,.25-2.7,9.78,9.78,0,0,0-.26-2.69,1,1,0,0,0-1-.83q-.85,0-1.13,1.08a11,11,0,0,0-.19,2.45A11.32,11.32,0,0,0,147.49,140.08Z"/><path class="cls-2" d="M153.12,141a1.21,1.21,0,0,0,.67-.23.92.92,0,0,0,.2-.66l0-.49v-4.53a1.05,1.05,0,0,0-.18-.71,1.19,1.19,0,0,0-.71-.25v-.4h3.15v1.31a6,6,0,0,1,1.05-1.1,1.91,1.91,0,0,1,1.21-.41,1.44,1.44,0,0,1,.92.33,1.3,1.3,0,0,1,.12,1.77,1,1,0,0,1-.75.32,1.13,1.13,0,0,1-.92-.5q-.39-.5-.54-.5a.92.92,0,0,0-.67.41,1.81,1.81,0,0,0-.34,1.18v3.15q0,.82.24,1a1.81,1.81,0,0,0,1,.27v.4h-4.43Z"/><path class="cls-2" d="M160.48,134.51V134l.54-.48q.43-.4.81-.82a13.85,13.85,0,0,0,1.37-1.78h.42v2.81h1.59v.73h-1.59v5a1.43,1.43,0,0,0,.11.59.55.55,0,0,0,.54.37.72.72,0,0,0,.54-.23,3,3,0,0,0,.44-.64l.4.2a3.77,3.77,0,0,1-.7,1.11,2.31,2.31,0,0,1-1.75.76,2.25,2.25,0,0,1-1-.22,1.57,1.57,0,0,1-.85-1.54v-5.4Z"/><path class="cls-2" d="M167.26,138.11a14.75,14.75,0,0,1,3.39-1.33v-1.21a1.61,1.61,0,0,0-.31-1.09,1.43,1.43,0,0,0-1.11-.35,1.45,1.45,0,0,0-.74.17.48.48,0,0,0-.29.42.36.36,0,0,0,0,.16.61.61,0,0,0,.1.14l.1.11a1.23,1.23,0,0,1,.18.31.92.92,0,0,1,.07.35.88.88,0,0,1-.31.73,1.12,1.12,0,0,1-.73.26,1.23,1.23,0,0,1-.82-.28,1,1,0,0,1-.34-.82,1.71,1.71,0,0,1,.9-1.52,4.13,4.13,0,0,1,2.22-.56,4.71,4.71,0,0,1,2.37.54,2.15,2.15,0,0,1,.94,2v4a.5.5,0,0,0,.09.3.26.26,0,0,0,.21.13.4.4,0,0,0,.17,0,1.09,1.09,0,0,0,.24-.2l.25.35a2.71,2.71,0,0,1-1.08.8,2.15,2.15,0,0,1-.79.15,1.3,1.3,0,0,1-1.08-.43,1.63,1.63,0,0,1-.28-.72,3.91,3.91,0,0,1-1.56,1,3.22,3.22,0,0,1-1,.18,2.12,2.12,0,0,1-1.28-.43,1.57,1.57,0,0,1-.59-1.36A2,2,0,0,1,167.26,138.11Zm2.9,2.14a3.22,3.22,0,0,0,.46-.46v-2.44a3.45,3.45,0,0,0-1.17.51,1.78,1.78,0,0,0-.85,1.52,1.22,1.22,0,0,0,.25.83.73.73,0,0,0,.56.28A1.29,1.29,0,0,0,170.16,140.25Z"/><path class="cls-2" d="M174.35,141a1.36,1.36,0,0,0,.62-.28,1,1,0,0,0,.18-.73v-8.48a1,1,0,0,0-.17-.7,1.38,1.38,0,0,0-.63-.27v-.4h3.15V140a1,1,0,0,0,.18.72,1.44,1.44,0,0,0,.63.28v.4h-4Z"/></svg>