<?xml version="1.0" encoding="utf-8"?>
<!-- Generator: Adobe Illustrator 20.1.0, SVG Export Plug-In . SVG Version: 6.00 Build 0)  -->
<!DOCTYPE svg PUBLIC "-//W3C//DTD SVG 1.1//EN" "http://www.w3.org/Graphics/SVG/1.1/DTD/svg11.dtd">
<svg version="1.1" id="Layer_1" xmlns="http://www.w3.org/2000/svg" xmlns:xlink="http://www.w3.org/1999/xlink" x="0px" y="0px"
	 viewBox="0 0 529 535" style="enable-background:new 0 0 529 535;" xml:space="preserve">
<style type="text/css">
	.st0{fill:#FFFFFF;}
</style>
<g id="i0jJaC.tif">
	<g>
		<path class="st0" d="M148.7,432.9c-1.8,0.1-3.6,0.5-4.2,2.6c-0.6,2,0.7,3.3,2.2,4.3c1.9,1.3,4,1.8,6.3,1.1
			c2.7-0.9,3.4-3.3,1.5-5.5C152.9,433.6,151,432.9,148.7,432.9z M136.5,427.9c0-3.2-3.6-6.6-6.8-6.5c-2,0.1-3.3,1.5-3.1,3.5
			c0.3,2.9,3.4,6,6.4,6.1C135.1,431.1,136.5,429.9,136.5,427.9z M191.8,433.4c-1.4,0.7-3.3,1.3-4.7,2.5c-2,1.7-1.4,4.2,0.9,5.3
			c2.5,1.2,6.4,0.5,8.2-1.6c1.6-1.8,1.2-4-1-5.1C194.4,434,193.3,433.9,191.8,433.4z M171.3,444.2c3.3,0,5.8-1.8,5.8-4
			c-0.1-2.3-3-4.1-6.2-3.8c-3,0.3-5.2,2-5.2,4.1C165.7,442.5,168.2,444.2,171.3,444.2z M116.9,406.4c-1.5,0.1-2.4,1.1-2.5,2.7
			c-0.3,2.7,1.9,5.9,4.6,6.6c1.7,0.4,2.8-0.1,3.5-1.7C123.6,410.9,120.4,406.3,116.9,406.4z M109.7,400.7c1.1,0,1.9-0.8,2.1-2.4
			c0.2-2.6-2.7-5.6-5.3-5.5c-1.4,0.1-2.3,0.8-2.4,2.3C103.8,397.7,106.6,400.7,109.7,400.7z M98,389.5c1.2-0.1,2.4-0.5,2.4-2.2
			c0-1.8-2.4-3.6-4.7-3.5c-1.4,0-2.5,0.5-2.5,2.1C93.1,387.6,95.5,389.5,98,389.5z"/>
		<path d="M0,265.6c0.3-3.6,0.5-7.3,0.8-10.9C6,186.4,33.3,128.4,82.7,81c37.7-36.1,82.5-58.6,133.8-68.2
			c25.8-4.8,51.7-5.6,77.7-2.7c94.1,10.5,175.6,71,213.2,158.2c11.6,26.8,18.5,54.8,20.7,84c9.3,120.7-63.6,231.6-178,270.9
			c-2.8,1-6.1,1.2-9.1,1c-6.6-0.5-10.9-5.8-10.9-13c0-14,0.2-28.1,0.2-42.1c0-12.6,0.2-25.2-0.3-37.8c-0.4-10.8-3-21.1-8.7-30.5
			c-2.4-3.9-5.4-7.4-8.1-11.1c4.7-0.7,9.7-1.3,14.7-2.2c14.5-2.4,28.7-6,42.1-12.1c29.7-13.3,48.4-36,57-67.2
			c5.6-20.2,7.4-40.9,5.3-61.8c-2.1-21.4-10.6-40.2-24.8-56.3c-1.2-1.4-1.5-2.5-0.9-4.3c4.6-13.2,5.4-26.8,3.7-40.6
			c-1.1-8.5-3.3-16.7-6.1-24.8c-0.7-2.1-1.9-2.7-3.9-2.8c-7.5-0.5-14.7,1-21.8,3.1c-15.8,4.9-30.1,12.7-43.8,21.8
			c-3,2-5.4,2.4-8.9,1.5c-42-10.6-84.1-10.3-126,0.7c-1.2,0.3-2.2,0.2-3.2-0.6c-13.8-9.2-28.1-17.4-43.9-22.7
			c-7.7-2.6-15.5-4.4-23.7-4c-3.6,0.2-3.6,0.2-4.8,3.5c-6.6,18.4-8.9,37.2-4.6,56.4c0.7,3.1,1.7,6.1,2.7,9.1
			c0.4,1.1,0.2,1.8-0.5,2.7c-13.1,14.7-21.4,31.7-24.7,51.2c-1.9,11.2-1.7,22.5-1,33.8c1,15.4,3.7,30.5,9.2,44.9
			c11.3,29.4,32.3,48.6,61.4,59.6c15.1,5.7,30.8,8.7,46.8,10.7c0.7,0.1,1.3,0.2,2,0.3c0,0.3,0.1,0.4,0,0.5
			c-9.1,8.7-13.5,19.7-15.6,31.9c-0.4,2.3-1.3,3.5-3.5,4.3c-10.7,4.1-21.6,6.5-33.1,5.3c-13.4-1.4-24.4-7.4-33-17.6
			c-3-3.5-5.5-7.4-8-11.3c-7.8-12.1-17.9-21.4-32-25.5c-5-1.4-10-2-15.1-0.7c-0.3,0.1-0.5,0.1-0.8,0.2c-4.9,1.4-6,4.4-2.5,8.1
			c2.4,2.6,5.2,5,8.2,6.9c6.6,4,11.9,9.3,16.5,15.4c5,6.6,9,13.8,12.1,21.6c6.2,15.9,17.7,26,33.4,31.9c11.6,4.3,23.8,5.2,36,4.2
			c6.8-0.6,13.5-1.7,20.4-2.6c0,0.3,0.1,0.7,0.1,1.2c0.1,15.6,0.2,31.3,0.4,46.9c0,3.4-0.7,6.6-2.8,9.3c-3.4,4.3-10.2,5.9-16.5,3.8
			c-25-8.4-48.2-20.2-69.5-35.8c-55.9-41-91.1-95.5-105.2-163.4c-2.8-13.4-4.3-26.9-4.8-40.6c0-1.1-0.2-2.2-0.3-3.3
			C0,275.5,0,270.5,0,265.6z"/>
		<path d="M148.7,432.9c2.3,0.1,4.3,0.8,5.8,2.5c1.9,2.2,1.2,4.6-1.5,5.5c-2.3,0.7-4.4,0.2-6.3-1.1c-1.5-1-2.7-2.3-2.2-4.3
			C145.1,433.4,146.9,433,148.7,432.9z"/>
		<path d="M136.5,427.9c0,2-1.4,3.2-3.5,3.1c-2.9-0.2-6.1-3.2-6.4-6.1c-0.2-2,1.1-3.5,3.1-3.5C132.9,421.3,136.5,424.7,136.5,427.9z
			"/>
		<path d="M191.8,433.4c1.6,0.5,2.6,0.6,3.5,1c2.2,1.1,2.6,3.3,1,5.1c-1.8,2.1-5.7,2.8-8.2,1.6c-2.4-1.2-3-3.6-0.9-5.3
			C188.5,434.7,190.4,434.1,191.8,433.4z"/>
		<path d="M171.3,444.2c-3.1,0-5.5-1.7-5.6-3.8c0-2.1,2.2-3.8,5.2-4.1c3.2-0.3,6.1,1.5,6.2,3.8C177.1,442.5,174.5,444.2,171.3,444.2
			z"/>
		<path d="M116.9,406.4c3.5-0.1,6.7,4.5,5.6,7.6c-0.6,1.6-1.8,2.1-3.5,1.7c-2.7-0.7-4.9-3.8-4.6-6.6
			C114.5,407.4,115.4,406.4,116.9,406.4z"/>
		<path d="M109.7,400.7c-3.1,0-5.9-3-5.6-5.6c0.2-1.5,1-2.2,2.4-2.3c2.6-0.1,5.5,3,5.3,5.5C111.6,399.9,110.8,400.7,109.7,400.7z"/>
		<path d="M98,389.5c-2.5,0-4.9-1.9-4.8-3.7c0.1-1.6,1.2-2.1,2.5-2.1c2.2-0.1,4.7,1.8,4.7,3.5C100.4,389,99.2,389.4,98,389.5z"/>
	</g>
</g>
</svg>
